<svg version="1.1" id="Layer_1" xmlns="http://www.w3.org/2000/svg" xmlns:xlink="http://www.w3.org/1999/xlink" x="0px" y="0px"
	 width="100%" viewBox="0 0 1024 1024" enable-background="new 0 0 1024 1024" xml:space="preserve">
<path fill="#000000" opacity="1.000000" stroke="none" 
	d="
M657.971313,427.023438 
	C653.872986,419.847626 648.025269,414.332642 642.021423,409.434143 
	C639.851074,409.875061 640.613159,411.605316 639.537720,412.601715 
	C637.062378,411.113342 632.475830,411.268372 635.910583,406.106720 
	C636.777283,404.804230 635.324707,403.779480 633.712280,403.950989 
	C630.232178,404.321198 619.440002,398.663635 618.100891,395.759247 
	C617.309509,394.042816 619.242798,394.422272 620.111450,393.960602 
	C617.403687,391.477417 615.090576,389.344604 611.990540,388.410248 
	C610.079163,389.300873 612.850891,390.892212 610.538452,392.240784 
	C603.750977,389.056488 596.323303,385.838379 589.162720,382.107758 
	C585.179321,380.032440 581.313904,377.787567 577.101379,376.157227 
	C574.587585,375.184387 571.519653,374.598572 571.827454,370.601440 
	C571.944214,369.086151 570.117676,368.815704 568.879272,368.357300 
	C567.394470,367.807709 565.590149,367.818787 564.731567,366.216034 
	C564.981262,363.997955 567.619385,365.438202 568.129028,363.771423 
	C568.502258,362.201691 566.166748,361.392303 567.019348,359.602448 
	C570.067932,357.550262 572.850525,361.510162 575.915283,360.247314 
	C576.358459,357.899841 573.102295,357.827911 573.383301,355.293427 
	C575.589783,352.811035 578.747681,354.699219 581.866943,354.132324 
	C578.382507,350.407837 575.344666,346.583038 570.273926,345.245239 
	C567.572083,344.532410 566.003784,342.829193 565.965759,339.887787 
	C565.924255,336.679169 569.027527,337.579224 570.266174,336.424133 
	C574.551270,332.428284 578.489807,336.581451 581.978577,336.140137 
	C590.588257,335.051025 594.042358,342.498260 600.395447,344.730927 
	C607.183411,347.116486 613.596375,350.930237 617.890015,356.538818 
	C621.629272,361.423248 626.177429,364.305756 631.690552,366.898010 
	C632.008545,367.000366 631.972168,366.969666 631.972168,366.969666 
	C633.405579,369.021790 631.401306,370.261169 630.613586,372.062988 
	C632.550293,373.576691 634.096863,375.698547 637.059082,373.866638 
	C638.635803,372.891571 639.907410,374.153229 641.169250,374.868622 
	C649.789124,379.755402 656.943542,386.488770 664.299072,393.004913 
	C666.485657,394.942017 667.891174,399.744568 672.511292,396.576294 
	C672.729614,396.426544 673.512939,396.801361 673.822876,397.130127 
	C677.474915,401.003662 681.195129,404.850128 683.920410,409.454071 
	C685.111755,411.466858 682.358826,413.575409 684.364014,416.260925 
	C689.131042,422.645386 693.020264,429.676941 697.460388,436.315796 
	C704.736023,447.194366 709.738525,459.135681 714.241455,471.328491 
	C714.413818,471.795197 714.354492,472.459137 714.665833,472.746307 
	C720.906494,478.502899 719.328064,486.403503 720.489441,493.571136 
	C721.711487,501.112579 723.786194,508.508453 724.313782,516.171997 
	C724.828491,523.647705 730.044250,527.973633 737.509094,527.182129 
	C746.718689,526.205505 755.928955,525.234985 765.939575,524.177246 
	C761.607727,521.033264 756.973083,524.635498 752.726013,520.987854 
	C760.050842,519.361511 766.748657,519.929382 773.416138,520.124817 
	C773.732056,520.134094 774.271790,520.267822 774.322388,520.450378 
	C776.494080,528.283447 783.013184,523.141663 787.263184,524.750305 
	C788.970276,525.396423 791.272339,524.261230 792.568909,526.320129 
	C792.464905,526.591797 792.452881,526.790771 792.349731,526.867737 
	C790.531616,528.225952 786.211426,526.661133 786.726868,530.267822 
	C787.201660,533.590088 790.987427,532.583984 793.459778,532.719788 
	C799.941650,533.075928 806.436340,533.196594 812.925476,533.425537 
	C813.868591,533.458679 814.977844,533.158630 815.578857,534.843079 
	C812.408569,536.297791 809.181091,537.731262 805.996643,539.254761 
	C803.385925,540.503906 800.137146,540.747742 798.902649,544.155823 
	C798.107239,546.351501 796.081177,545.568542 794.567505,545.230164 
	C791.620300,544.571350 788.667297,544.055664 785.660583,544.286072 
	C783.829773,544.426392 781.579163,543.846191 781.040283,546.833252 
	C780.753296,548.424377 778.954041,548.197144 777.659485,548.293884 
	C773.011047,548.641357 768.363037,549.016418 763.708191,549.248718 
	C760.990662,549.384277 758.390991,549.559631 756.443909,551.843750 
	C755.374512,553.098206 753.792847,553.302734 752.296082,553.137329 
	C746.489624,552.495544 740.682617,553.071533 734.880920,552.956787 
	C732.205017,552.903931 729.404114,551.911621 728.436707,555.649475 
	C727.553711,559.061157 729.651733,560.497620 732.362366,561.531677 
	C733.127075,561.823425 733.969116,562.076965 734.052734,563.154419 
	C733.909790,563.387146 733.738220,563.884521 733.589111,563.877991 
	C726.890869,563.578552 726.834900,563.817444 725.974792,570.784790 
	C725.290222,576.330078 724.805359,581.681396 728.085266,586.685120 
	C728.745728,587.692749 729.333130,589.142517 728.007263,590.463379 
	C724.877930,591.099792 725.216736,586.440552 722.265381,586.619568 
	C720.463135,587.366821 720.536194,589.095215 720.271057,590.744751 
	C717.199158,609.854858 711.285828,627.814209 699.839417,643.771729 
	C696.786255,648.028198 695.132629,653.287292 692.824890,658.080566 
	C692.324280,659.120117 692.297302,659.856384 693.519958,660.519287 
	C695.251587,661.458252 694.173340,662.816467 693.266418,663.194397 
	C686.700439,665.930664 684.080811,672.473083 679.809875,677.300903 
	C661.335754,698.183716 639.843872,714.904663 614.391479,726.352539 
	C600.888306,732.426025 586.932495,737.240479 572.488586,740.676025 
	C568.288208,741.675171 564.361938,743.827148 560.132446,745.521790 
	C561.623962,748.744995 563.887939,747.941528 565.606934,747.596985 
	C572.917236,746.131958 580.119995,744.382629 587.251465,742.002686 
	C597.189575,738.686096 607.126099,735.403931 616.897522,731.620850 
	C617.651611,731.328979 618.533447,731.222839 619.541443,733.077515 
	C601.277527,741.029175 583.173157,749.113953 563.468567,752.520508 
	C528.438721,758.576477 493.509796,760.155884 458.990204,749.024841 
	C459.629303,745.976318 462.049042,747.515442 464.234436,745.489807 
	C456.591125,745.356079 451.074188,739.966797 443.291931,742.852966 
	C439.067352,744.419556 434.857574,740.625183 431.327759,737.884949 
	C430.137878,736.961182 429.050385,735.368591 427.643860,735.714172 
	C421.302673,737.272522 417.024902,732.718445 411.977356,730.603943 
	C410.396545,729.941711 407.325653,729.475586 408.982269,725.750427 
	C409.606384,724.346924 406.906708,723.114380 404.866364,723.531311 
	C403.916962,723.725342 402.757751,724.701111 402.133453,724.402649 
	C394.416138,720.713562 387.940948,715.348572 381.324554,709.585327 
	C384.127960,707.742249 385.187408,710.804871 387.781738,709.934265 
	C384.274384,703.930176 377.711090,702.293823 372.683533,697.092834 
	C373.604584,701.274902 377.595856,701.669556 377.975494,706.615295 
	C368.843658,701.512573 363.130676,693.995972 355.937744,688.138123 
	C356.617493,692.095337 359.810455,696.752563 364.374115,700.214600 
	C368.624176,703.438721 372.281494,706.962769 375.174377,711.662354 
	C378.225922,716.619751 383.691284,719.544312 388.381378,722.964905 
	C406.829651,736.419800 427.480927,745.568359 448.662384,753.762329 
	C459.808685,758.074341 471.707428,758.927063 483.015625,762.277344 
	C497.747406,766.642029 512.742981,767.102356 527.906982,766.266541 
	C531.908203,766.046021 535.931824,766.233276 539.971741,766.792542 
	C536.149658,769.697937 531.643250,769.600647 527.442932,769.591125 
	C506.615234,769.543945 485.794464,768.895813 465.335297,764.464417 
	C437.476837,758.430359 411.972931,747.076721 388.773193,730.434692 
	C376.304932,721.490662 364.136719,712.120361 353.661774,700.972168 
	C341.952728,688.510559 330.849823,675.413208 322.314819,660.418884 
	C322.150055,660.129395 321.865814,659.868103 321.809998,659.562134 
	C319.895081,649.061707 312.071014,641.300781 308.843933,631.353699 
	C304.952209,619.357910 300.400330,607.679932 298.521118,594.997314 
	C296.896942,584.036011 294.240845,573.177124 292.222168,562.231812 
	C291.550720,558.591309 292.829071,555.320862 292.630005,551.846252 
	C292.235229,544.953491 290.231049,543.817322 283.451935,544.766357 
	C277.409027,545.612244 271.144867,545.717407 265.054962,545.216858 
	C251.459732,544.099487 237.861023,542.957214 224.285492,541.736755 
	C219.126953,541.272949 213.567154,541.134705 208.402832,539.864136 
	C208.604584,537.412659 210.215805,537.224548 211.386612,537.200806 
	C230.869492,536.805725 249.698914,530.270691 269.298218,531.057556 
	C274.949036,531.284424 280.601105,531.502258 286.246887,531.824219 
	C290.154816,532.047119 292.404724,530.906982 292.936279,526.467468 
	C293.882690,518.562988 295.597321,510.752625 296.646057,502.857147 
	C297.117798,499.305695 300.992157,498.332855 301.508423,494.629822 
	C302.798157,485.379700 306.165680,476.612885 309.022308,467.747345 
	C312.850037,455.868073 317.400665,444.435822 324.139099,433.701355 
	C337.386139,412.598572 352.190430,392.669006 370.769165,376.227142 
	C383.623199,364.851562 397.756409,354.370880 413.530945,347.192566 
	C421.096924,343.749634 428.628723,340.339478 435.638214,335.969727 
	C439.371002,333.642670 442.316925,336.985748 445.398895,335.961731 
	C447.274445,337.251923 445.692169,338.951263 446.626160,340.838806 
	C451.795502,339.416168 457.108673,337.953918 462.746826,336.402252 
	C463.615479,342.289612 458.268066,342.024506 455.771332,344.284027 
	C456.749969,346.947235 459.624756,346.855011 461.566101,348.884888 
	C459.473907,352.336334 454.392365,354.482880 455.849060,360.088409 
	C458.586029,360.802094 461.707764,361.616119 464.692871,362.394501 
	C465.104004,365.605103 462.850128,366.043701 461.088226,366.743469 
	C455.674713,368.893494 450.286896,371.148041 444.752960,372.941956 
	C440.605804,374.286377 437.628021,377.101196 434.387604,379.693756 
	C426.246277,386.207397 416.849854,390.601471 407.702881,395.916718 
	C406.687805,393.803741 407.198883,390.786957 404.713409,390.903137 
	C401.801086,391.039246 399.608612,393.401245 397.885712,395.533661 
	C391.741150,403.138733 383.954163,409.254456 378.329926,417.311249 
	C376.500580,419.931885 374.879608,416.896515 372.934662,417.004608 
	C366.243286,425.177612 359.290009,433.109100 354.500458,442.836761 
	C351.810974,448.299103 348.304932,453.449432 345.553772,458.951141 
	C344.739136,460.580231 343.295715,462.406097 346.101776,464.022217 
	C348.200470,465.230957 346.469025,466.950775 345.926666,468.389801 
	C338.963104,486.865356 333.657166,505.640198 335.318695,525.716858 
	C335.591858,529.017334 336.376495,531.795837 340.454895,531.602478 
	C344.670074,531.402832 344.839050,528.384521 344.797943,525.163025 
	C344.683411,516.186096 344.920685,507.213989 345.936127,498.289337 
	C346.279663,495.270050 346.268097,492.015228 348.708649,489.553406 
	C350.958405,490.709290 350.470123,492.660278 350.046387,494.028534 
	C347.189972,503.252747 348.408020,512.824036 347.458618,522.202881 
	C346.783356,528.873352 349.146423,530.800964 355.877502,530.025513 
	C365.222504,528.948914 374.506866,530.584290 383.789520,531.193237 
	C393.294525,531.816772 402.773926,531.426636 412.261963,531.607666 
	C415.804626,531.675293 418.704132,529.361206 422.242035,528.804199 
	C429.817230,527.611633 437.121002,528.885498 444.520782,529.682800 
	C465.456635,531.938721 486.457397,530.040588 507.419739,530.636353 
	C508.234161,530.659485 509.145996,530.588440 509.861908,530.246277 
	C521.220642,524.817871 532.721130,525.300781 544.680176,528.348816 
	C554.101074,530.749878 563.830627,528.803650 573.401306,528.169189 
	C588.675049,527.156738 603.920227,526.456482 619.078247,529.392273 
	C624.079163,530.360901 629.014709,529.337280 633.989929,529.066772 
	C641.631287,528.651367 649.301331,528.970764 656.913879,527.756531 
	C660.861145,527.126892 664.832581,527.157227 667.467896,523.235474 
	C668.714172,521.380859 670.726929,521.818787 672.125244,523.537537 
	C673.676636,525.444336 675.554688,526.418762 677.761719,525.051697 
	C680.178040,523.555054 680.318176,521.348877 678.424072,519.020874 
	C681.896790,517.688293 684.579102,516.141968 682.715820,511.997192 
	C682.544250,511.615570 682.633484,510.775177 682.905762,510.586395 
	C687.768127,507.214722 684.295471,503.421570 683.280518,499.989319 
	C676.947937,478.575897 667.168701,458.832214 653.292603,441.317780 
	C647.832886,434.426575 641.375549,428.324829 635.359009,421.876221 
	C633.225952,419.590057 631.044434,417.346527 630.183105,414.056519 
	C633.177795,413.013031 634.698608,414.554443 636.349854,416.352051 
	C640.960022,421.370697 645.707214,426.264008 650.435669,431.172821 
	C651.446472,432.222168 652.522705,433.300262 654.882202,433.147430 
	C653.850769,426.980774 648.029480,424.174927 645.502686,417.987244 
	C650.486023,420.614716 652.957703,425.138641 657.722046,427.239166 
	C658.718384,430.593262 660.008789,432.957275 663.719788,434.629395 
	C662.464661,430.769653 661.523987,427.915710 657.971313,427.023438 
M641.815918,658.330505 
	C643.776428,656.155762 644.385071,652.659485 648.319641,651.593079 
	C647.620422,658.663269 640.559021,662.530212 641.293518,669.637573 
	C640.068665,669.386658 638.870361,668.812561 638.558838,669.124451 
	C622.929321,684.768982 606.439087,699.267090 586.033813,708.700623 
	C592.455566,709.080933 597.130249,705.471497 602.164734,702.751282 
	C617.211975,694.621277 631.032471,684.622498 642.683533,672.238403 
	C653.322266,660.930359 663.166321,648.959229 669.970398,634.461975 
	C676.736938,620.044800 685.073059,606.579590 684.673096,589.772400 
	C684.520813,583.376160 686.262878,576.924683 687.246765,570.514526 
	C688.168335,564.511108 684.204102,560.434937 678.130493,560.774353 
	C675.589539,560.916321 672.724121,562.833435 670.217773,560.280457 
	C671.555847,555.744263 675.924927,557.460693 678.583008,555.879150 
	C679.711731,555.207520 681.299072,555.013367 681.416138,553.425720 
	C681.537354,551.781799 680.000305,551.482544 678.873474,550.770569 
	C675.900146,548.891724 672.429138,549.176270 669.229065,548.496033 
	C660.031372,546.541138 650.621826,544.230774 642.406128,551.626343 
	C641.766846,552.201782 640.542847,552.296936 639.583313,552.321045 
	C630.595276,552.546143 621.602600,552.947937 612.616943,552.838196 
	C591.024658,552.574646 569.470276,550.771423 547.856140,551.150940 
	C546.019287,551.183228 543.836548,551.781250 542.115662,549.330383 
	C554.469604,547.359436 566.868286,548.506775 579.697632,546.273193 
	C577.566406,543.778992 575.965027,544.468323 574.547852,544.300964 
	C562.598450,542.889465 550.807495,545.652649 538.872253,545.678101 
	C527.066833,545.703247 515.226868,545.759155 503.409149,546.161865 
	C501.917419,546.212708 500.276611,546.390198 499.096375,545.311096 
	C496.743073,543.159485 493.923920,543.268738 491.087616,543.374207 
	C470.814087,544.127380 450.552521,545.299438 430.251160,545.058899 
	C428.757660,545.041260 427.318542,545.468140 425.863922,545.716125 
	C423.193878,546.171387 425.819000,548.361511 424.336914,549.171265 
	C421.512695,549.196594 418.120697,550.461121 415.766235,548.435852 
	C413.259705,546.279785 410.684174,546.350830 407.883148,546.301514 
	C406.054474,546.269348 404.000702,546.705261 402.438385,546.029053 
	C396.251526,543.351257 390.115326,544.831848 383.816772,545.293457 
	C370.106537,546.298096 356.395294,548.019104 342.609772,547.136292 
	C338.436218,546.868958 336.551361,548.116272 337.331055,552.404480 
	C337.538086,553.543152 337.786255,554.682251 338.124695,555.787781 
	C344.654022,577.116638 351.516357,598.310242 363.191467,617.553955 
	C364.253998,619.305359 365.744843,621.084839 363.760406,624.018799 
	C356.784882,616.640137 352.528442,608.077209 348.721466,599.348999 
	C344.854340,590.482788 341.578125,581.358948 338.043091,572.347961 
	C337.266296,573.148560 337.237946,573.764771 337.270691,574.377625 
	C337.594879,580.447021 340.695190,585.890381 341.449951,591.760864 
	C342.047211,596.406189 338.287567,602.238403 346.072418,604.141479 
	C346.273743,604.190735 346.217224,605.085327 346.376129,605.553284 
	C347.070129,607.596741 347.732727,609.654541 348.526428,611.659790 
	C354.168518,625.913940 362.313873,638.609070 372.703308,649.840332 
	C385.084930,663.225159 398.864166,674.867554 414.829742,683.888489 
	C425.032990,689.653625 436.041321,693.390869 446.900757,697.510986 
	C450.202209,698.763672 453.665192,700.513733 457.482239,698.801758 
	C459.111267,698.071228 460.937988,699.101624 461.431305,700.200317 
	C463.448761,704.693848 467.524200,704.099609 471.174774,704.733337 
	C472.981720,705.047058 475.217377,704.228516 476.464508,706.497314 
	C474.665375,708.217712 472.507751,708.297607 470.334961,708.186646 
	C460.550079,707.687012 451.391571,703.947876 441.766357,702.595642 
	C441.198975,702.515930 440.547638,701.942200 440.221802,701.419739 
	C438.628479,698.864929 435.963470,698.373474 433.381195,697.754578 
	C428.986694,696.701416 424.836426,695.112732 420.930603,692.796814 
	C416.209503,689.997314 411.226837,687.647034 406.860443,684.243042 
	C405.701996,683.339966 404.054352,682.558777 402.944153,684.330139 
	C401.996948,685.841553 403.306763,686.857483 404.356903,687.612610 
	C407.060760,689.556702 409.826599,691.419373 412.623505,693.228271 
	C426.654938,702.303162 441.210571,710.474854 457.572510,714.377441 
	C470.830719,717.539734 484.403259,719.366394 497.995911,720.505371 
	C505.880249,721.165955 513.855774,721.090515 521.774170,720.838928 
	C525.535461,720.719421 529.228210,719.000610 533.005249,718.718079 
	C546.903625,717.678223 559.842346,712.432190 573.073792,708.917419 
	C582.189697,706.495789 590.800537,700.862122 599.129395,695.535156 
	C615.052368,685.351135 629.757874,673.951172 641.815918,658.330505 
M685.728027,648.311035 
	C686.209656,652.697510 682.044678,653.964722 680.007935,656.608582 
	C674.821350,663.341187 671.482422,671.435730 664.835693,677.098938 
	C663.753845,678.020569 661.984009,679.664978 662.838196,680.794250 
	C664.958435,683.597290 662.212097,685.054932 660.642456,688.313721 
	C665.937012,683.599304 670.213135,680.215576 673.751587,675.962891 
	C683.885925,663.783081 691.507202,649.871887 700.734375,637.068604 
	C702.772400,634.240723 705.548645,630.610962 704.749695,627.637939 
	C703.226868,621.971130 706.527832,618.185547 708.058838,613.682007 
	C709.902039,608.260498 712.435242,603.013855 712.470276,596.987671 
	C707.135132,597.748535 706.447388,598.076111 704.919128,603.786743 
	C700.757568,619.337036 693.979126,633.728210 685.728027,648.311035 
M661.647766,654.127380 
	C660.190002,655.939819 658.678711,657.712097 657.282715,659.570923 
	C644.235779,676.943237 628.343628,691.107056 609.563110,702.038696 
	C604.791992,704.815796 598.848206,706.643311 599.560791,714.455811 
	C639.450500,695.622620 666.022217,664.795959 681.958374,624.227173 
	C676.064819,634.487244 669.516418,644.330383 661.647766,654.127380 
M520.354370,747.574707 
	C518.190491,749.375671 514.732727,745.924255 512.646362,749.424255 
	C523.125488,753.576599 533.677551,747.485657 543.828857,750.781372 
	C544.748535,746.524353 543.895020,745.368042 540.070984,745.894775 
	C533.805603,746.757751 527.534302,747.444824 520.354370,747.574707 
M643.631104,380.896851 
	C641.341187,382.397491 642.176453,384.041992 643.694946,385.308319 
	C650.551086,391.026062 657.489624,396.645325 664.430115,402.260986 
	C664.720703,402.496094 665.326538,402.341583 667.501526,402.469604 
	C660.253479,393.486572 652.436340,387.029388 643.631104,380.896851 
M734.768494,535.366821 
	C732.702759,535.303833 730.738159,535.452698 729.831482,537.768066 
	C729.440002,538.767761 729.342834,540.146179 730.347290,540.389832 
	C733.956482,541.265137 737.072144,544.280396 741.197632,542.960571 
	C744.634583,541.860962 745.060364,539.738831 742.530518,537.159485 
	C740.508728,535.098145 738.049622,535.365723 734.768494,535.366821 
M703.090393,467.074005 
	C702.583740,466.472321 702.170471,465.657837 700.874268,466.360046 
	C701.282898,470.374908 702.833801,473.982574 705.604797,478.350311 
	C706.210632,473.717896 705.564880,470.513306 703.090393,467.074005 
M304.208710,567.790039 
	C304.378845,570.593994 304.156403,573.513428 306.695892,575.653870 
	C307.125305,571.217285 306.394287,567.035889 303.662598,563.234375 
	C303.824646,564.496887 303.986664,565.759399 304.208710,567.790039 
M672.911743,411.095215 
	C673.540283,411.475189 673.954468,412.394012 675.398621,411.698761 
	C673.146973,409.419281 672.351562,405.979095 668.501343,404.390259 
	C668.564514,408.118866 671.099792,408.976654 672.911743,411.095215 
z"/>
<path fill="#000000" opacity="1.000000" stroke="none" 
	d="
M544.560852,288.736389 
	C549.705322,284.226288 553.249756,278.824554 556.875183,273.481201 
	C558.285706,271.402222 559.373047,268.854980 562.270691,268.498108 
	C563.519287,270.330994 562.792114,271.634399 561.962524,272.558380 
	C559.622375,275.164703 559.503784,277.475067 560.540771,281.049072 
	C561.772156,285.293274 558.644226,288.842651 554.936768,291.267517 
	C550.448914,294.202850 550.290466,295.944122 554.225159,299.571869 
	C554.705811,300.015015 555.379578,300.378784 555.623291,300.929901 
	C562.424500,316.309570 565.507568,332.043945 556.963318,347.595428 
	C554.486694,352.103119 551.183411,356.722260 546.579224,359.947449 
	C543.181274,362.327728 540.043518,365.173950 540.534241,369.810730 
	C538.406311,371.205963 535.829163,369.296967 534.037170,371.594757 
	C533.846252,374.094208 538.348083,376.673950 534.698364,379.316528 
	C532.206238,381.121063 531.002197,378.135468 529.327393,377.036774 
	C527.381653,376.999054 527.699402,379.438141 525.812317,379.994415 
	C519.852051,375.459625 512.296021,373.819763 505.867889,370.693542 
	C503.226044,371.378296 503.928619,374.249664 501.776215,374.901978 
	C499.039154,374.451233 499.811493,372.053406 499.425476,369.945923 
	C491.733368,369.842712 489.496429,358.203583 479.056549,362.167847 
	C482.610168,355.026611 479.277466,351.186188 475.467560,347.567993 
	C474.527069,346.674774 474.175385,345.727020 474.229431,344.479980 
	C474.344177,341.831573 472.953217,340.563873 470.383545,340.236328 
	C467.066681,339.813538 467.339447,338.126923 468.666840,335.681488 
	C471.773254,329.958588 470.142273,325.056610 464.364899,322.020142 
	C462.096863,320.828094 459.822540,319.648071 456.956085,318.152039 
	C459.683105,316.226501 461.631744,317.105835 463.489563,317.208710 
	C468.132660,317.465820 470.577271,315.648315 472.927032,311.136200 
	C477.725250,301.922516 473.261169,295.824951 467.487946,290.117371 
	C459.473846,282.194427 451.877563,273.705017 441.621155,268.359833 
	C439.797119,267.409241 438.316772,265.537811 437.062897,263.811768 
	C434.810486,260.711090 432.807343,257.492950 429.127136,255.760300 
	C427.996674,255.228073 426.969055,254.086533 427.782776,252.475754 
	C428.068115,252.303696 428.522888,251.936096 428.594391,251.999634 
	C435.890472,258.485016 446.618011,259.328522 452.427368,269.174561 
	C457.043884,276.998901 464.597168,283.657440 473.019806,288.349060 
	C475.445343,289.700134 478.219849,290.505737 480.917389,291.267517 
	C484.526794,292.286835 485.492310,289.202271 487.405640,287.160370 
	C488.807892,285.663849 491.457123,285.226898 493.628815,284.580597 
	C500.144135,282.641541 506.710266,280.873718 513.231750,278.954712 
	C517.029114,277.837311 520.413696,278.511047 524.031555,280.897308 
	C527.144592,282.950592 529.735168,283.688965 533.085754,280.072449 
	C536.350037,276.549011 538.814758,272.660583 541.060242,268.242218 
	C543.519043,270.887695 542.365051,273.070007 541.483948,275.168732 
	C540.585815,277.308014 539.491882,279.322876 539.027710,281.671143 
	C538.005249,286.844116 538.551819,287.737823 544.560852,288.736389 
M520.617126,297.272278 
	C515.923767,300.652771 519.898865,306.308105 516.976318,310.021027 
	C518.350098,311.352875 521.346008,309.911621 521.169617,312.237000 
	C520.875488,316.115540 522.691589,315.204407 525.021362,314.748016 
	C529.520935,313.866455 539.388184,317.798340 540.841003,321.539978 
	C542.552979,325.949066 546.610962,324.571655 549.519470,325.878571 
	C550.676453,326.398499 551.501831,324.703278 551.305847,323.500671 
	C549.876770,314.733337 547.484680,306.355499 540.709473,300.009369 
	C538.657104,298.086945 536.773804,298.570618 536.609375,301.386841 
	C536.437012,304.338013 534.805420,305.343323 532.454224,306.207123 
	C530.488281,304.004822 529.675049,301.723450 530.157288,298.845245 
	C531.111511,293.150696 530.028198,292.152710 523.498169,292.435120 
	C522.887146,293.964050 524.294861,296.680756 520.617126,297.272278 
M550.327087,334.135376 
	C547.195984,331.698486 544.770630,333.642761 542.350769,335.460358 
	C542.248047,335.537506 542.453491,336.024933 542.510193,336.296448 
	C543.809387,337.245117 544.937439,335.049927 546.216125,336.144287 
	C547.463684,337.285431 545.305908,339.134521 547.163391,340.250488 
	C550.173340,339.595093 549.719177,336.857971 550.327087,334.135376 
z"/>
<path fill="#000000" opacity="1.000000" stroke="none" 
	d="
M287.666260,597.173462 
	C283.810913,581.383972 280.393280,565.955200 282.350739,549.848633 
	C284.821808,574.630310 290.132019,598.680542 300.534241,622.597351 
	C295.695923,619.857910 291.733459,611.474731 287.666260,597.173462 
z"/>
<path fill="#000000" opacity="1.000000" stroke="none" 
	d="
M564.045166,423.002197 
	C566.073975,426.275024 567.958252,429.213531 569.679871,432.244476 
	C570.546265,433.769806 572.029785,435.788910 569.915894,437.082855 
	C567.561768,438.523834 566.458923,436.153503 565.312073,434.565430 
	C561.291809,428.998383 559.242004,422.387177 555.762817,416.530457 
	C553.646423,412.967743 551.595154,409.365662 549.557983,405.756836 
	C548.774109,404.368317 547.434143,403.107697 548.355347,400.873169 
	C551.807617,401.120911 552.717651,404.054016 553.551941,406.443848 
	C555.736328,412.700928 559.950500,417.578094 564.045166,423.002197 
z"/>
<path fill="#000000" opacity="1.000000" stroke="none" 
	d="
M453.295288,315.386841 
	C454.539032,315.873871 455.678284,316.033173 455.077637,317.905762 
	C452.941254,317.616302 450.617676,317.621735 448.506134,316.955322 
	C442.170013,314.955627 435.919678,312.942383 429.134979,312.722382 
	C426.667175,312.642395 422.451660,311.548615 423.428375,308.029327 
	C424.461731,304.306000 428.630219,305.814911 430.683228,307.109528 
	C437.577698,311.457123 445.627228,312.302063 453.295288,315.386841 
z"/>
<path fill="#000000" opacity="1.000000" stroke="none" 
	d="
M573.974731,249.174423 
	C576.136353,244.792282 578.465698,240.945007 581.589661,237.673721 
	C582.799622,236.406708 584.337646,234.637360 586.279175,236.036331 
	C588.107056,237.353363 587.433105,239.414291 586.404846,240.984039 
	C582.980103,246.212585 579.298889,251.232651 573.957214,254.845093 
	C572.300842,252.586334 573.708069,251.094009 573.974731,249.174423 
z"/>
<path fill="#000000" opacity="1.000000" stroke="none" 
	d="
M394.380096,408.381226 
	C387.870331,414.082367 384.035828,421.707855 377.389099,428.440186 
	C378.962280,419.363953 396.541962,399.487396 405.153442,396.944397 
	C401.892914,401.832001 397.828644,404.611023 394.380096,408.381226 
z"/>
<path fill="#000000" opacity="1.000000" stroke="none" 
	d="
M476.681519,366.848267 
	C474.365753,368.932678 474.131073,371.819183 472.572052,373.904541 
	C471.336700,375.556976 470.112976,377.516296 467.456818,377.119476 
	C466.065277,375.243195 467.310059,373.749359 468.510803,372.871521 
	C471.767029,370.491028 471.858429,367.041718 472.116150,363.626282 
	C472.231567,362.096436 471.022430,360.071381 473.362488,359.453094 
	C476.182587,358.708008 475.678528,361.560028 476.576935,362.877869 
	C477.362915,364.030792 477.731842,365.254456 476.681519,366.848267 
z"/>
<path fill="#000000" opacity="1.000000" stroke="none" 
	d="
M589.472046,274.203766 
	C584.250732,278.596863 579.700623,283.631378 573.465820,285.919922 
	C572.136780,284.546631 572.192505,283.382599 572.941772,282.744904 
	C577.480164,278.882355 582.346802,275.464172 587.675293,272.768097 
	C588.442688,272.379791 589.277039,272.888245 589.472046,274.203766 
z"/>
<path fill="#000000" opacity="1.000000" stroke="none" 
	d="
M284.053284,499.293213 
	C286.454956,496.725006 286.447998,498.732178 286.341583,500.257843 
	C285.949585,505.877686 285.763306,511.544128 284.832825,517.080933 
	C284.347809,519.966736 285.592621,523.086914 283.113037,525.747559 
	C280.528687,517.006348 284.189392,508.345367 284.053284,499.293213 
z"/>
<path fill="#000000" opacity="1.000000" stroke="none" 
	d="
M731.759766,624.757080 
	C726.556763,619.374634 726.862976,611.961304 724.173767,605.655273 
	C727.997192,611.517456 732.031738,617.269409 731.759766,624.757080 
z"/>
<path fill="#000000" opacity="1.000000" stroke="none" 
	d="
M763.786011,489.741760 
	C762.585938,490.751068 761.838745,492.176544 759.535706,490.557465 
	C763.438965,485.854645 767.022034,481.104401 773.067261,478.752289 
	C771.059509,483.178467 767.284424,486.127319 763.786011,489.741760 
z"/>
<path fill="#000000" opacity="1.000000" stroke="none" 
	d="
M565.861084,261.742920 
	C568.002563,259.674377 568.412964,256.171173 571.949402,256.130798 
	C573.730530,260.934967 570.584961,265.400299 565.015381,266.048309 
	C563.964539,264.512817 564.859924,263.270599 565.861084,261.742920 
z"/>
<path fill="#000000" opacity="1.000000" stroke="none" 
	d="
M495.889801,378.709473 
	C497.791962,378.972504 499.361084,379.299957 500.780609,379.596161 
	C501.584229,381.267303 501.393341,382.771088 501.085999,384.194702 
	C500.752930,385.737366 500.714752,387.785187 498.716614,388.119781 
	C496.537750,388.484619 496.893982,386.302032 496.282349,385.098389 
	C495.250916,383.068542 491.699799,381.358124 495.889801,378.709473 
z"/>
<path fill="#000000" opacity="1.000000" stroke="none" 
	d="
M532.653564,178.948242 
	C533.549316,178.319962 534.264526,178.153839 534.671875,178.829422 
	C536.255798,181.456375 535.244568,189.013977 532.509460,192.314148 
	C530.413025,187.681381 531.702637,183.457596 532.653564,178.948242 
z"/>
<path fill="#000000" opacity="1.000000" stroke="none" 
	d="
M521.666382,388.716187 
	C516.855835,387.953461 516.068604,384.134552 519.716003,380.046417 
	C522.814026,382.247498 522.574768,385.288086 521.666382,388.716187 
z"/>
<path fill="#000000" opacity="1.000000" stroke="none" 
	d="
M765.982178,658.973267 
	C766.777527,661.358948 766.339050,663.243469 764.085632,661.325195 
	C761.595154,659.205200 759.285156,656.397644 759.691223,651.985168 
	C763.096741,653.417908 764.214722,656.273926 765.982178,658.973267 
z"/>
<path fill="#000000" opacity="1.000000" stroke="none" 
	d="
M544.646729,388.053894 
	C545.029724,386.057861 545.752991,385.261597 547.356934,386.526703 
	C549.855957,388.497772 548.300964,390.669220 547.562744,392.746399 
	C547.100586,394.046631 546.013428,394.569641 544.825073,393.831299 
	C542.220825,392.213226 543.359314,390.266174 544.646729,388.053894 
z"/>
<path fill="#000000" opacity="1.000000" stroke="none" 
	d="
M726.337036,648.902466 
	C726.536377,650.810486 727.677307,652.496460 725.509155,653.927917 
	C721.964966,651.610474 722.662781,648.358521 722.925598,644.962280 
	C725.810730,645.122192 725.699524,647.099487 726.337036,648.902466 
z"/>
<path fill="#000000" opacity="1.000000" stroke="none" 
	d="
M440.025055,294.030243 
	C442.325043,294.792114 444.399017,295.404510 444.883392,298.138641 
	C442.436676,299.665894 440.485291,298.355865 438.821442,296.978333 
	C437.413269,295.812500 438.187286,294.695679 440.025055,294.030243 
z"/>
<path fill="#000000" opacity="1.000000" stroke="none" 
	d="
M512.733276,407.106934 
	C513.167969,409.707886 514.059448,412.196014 511.045685,414.197144 
	C509.850555,411.134949 508.020660,408.456604 512.733276,407.106934 
z"/>
<path fill="#000000" opacity="1.000000" stroke="none" 
	d="
M652.533264,501.359100 
	C654.584290,502.499756 656.816467,503.017639 657.121277,505.867706 
	C654.456970,506.437622 652.443481,505.365906 650.882202,503.779114 
	C649.375977,502.248322 649.912903,501.136261 652.533264,501.359100 
z"/>
<path fill="#000000" opacity="1.000000" stroke="none" 
	d="
M632.028076,367.014038 
	C631.197937,365.084106 628.039612,365.248352 627.920654,362.281555 
	C631.305176,361.728058 633.001526,364.173370 635.087402,365.704102 
	C634.657654,367.466248 633.515503,366.924744 632.298523,366.983368 
	C631.972168,366.969666 632.008545,367.000366 632.028076,367.014038 
z"/>
<path fill="#000000" opacity="1.000000" stroke="none" 
	d="
M541.955444,260.963867 
	C541.854675,258.853058 541.218323,256.657684 543.807434,256.237122 
	C545.215271,256.008484 545.992493,257.421967 545.632080,258.579651 
	C545.142883,260.150970 545.220764,263.074554 541.955444,260.963867 
z"/>
<path fill="#000000" opacity="1.000000" stroke="none" 
	d="
M655.847168,517.914185 
	C658.140137,516.535400 659.258240,517.463013 659.492004,519.457764 
	C659.661255,520.902344 658.883301,522.171509 657.217224,521.814880 
	C655.276428,521.399536 654.518555,520.111816 655.847168,517.914185 
z"/>
<path fill="#000000" opacity="1.000000" stroke="none" 
	d="
M625.895386,575.684326 
	C622.595154,575.747681 622.497437,574.328735 624.673645,573.160095 
	C626.804993,572.015564 629.422668,571.801697 631.795959,571.077820 
	C638.953796,568.894714 646.096069,566.660400 653.245605,564.450134 
	C655.124634,563.869202 656.990112,563.017395 660.292175,564.667847 
	C649.196045,571.115906 637.241760,571.966248 625.895386,575.684326 
z"/>
<path fill="#000000" opacity="1.000000" stroke="none" 
	d="
M595.065979,584.234497 
	C590.880249,584.772156 587.322510,587.461670 583.151367,585.717285 
	C584.899902,582.561218 607.234924,576.274231 614.313660,577.287354 
	C608.004822,581.546875 601.514771,582.299377 595.065979,584.234497 
z"/>
<path fill="#000000" opacity="1.000000" stroke="none" 
	d="
M477.918488,548.726746 
	C481.090881,549.001221 483.959381,548.047424 486.430481,550.654602 
	C472.474792,550.654602 458.519104,550.654602 444.563416,550.654602 
	C449.620514,548.051331 455.150665,549.119080 460.491089,548.868225 
	C466.127625,548.603271 471.783752,548.756348 477.918488,548.726746 
z"/>
<path fill="#000000" opacity="1.000000" stroke="none" 
	d="
M670.013428,619.584595 
	C669.218323,620.840027 668.713196,622.012573 666.192322,621.103760 
	C669.967590,613.269958 670.853455,604.373901 676.540405,595.672241 
	C678.701050,601.348083 676.083191,604.870483 674.603821,608.260254 
	C673.018982,611.891785 671.280518,615.440613 670.013428,619.584595 
z"/>
<path fill="#000000" opacity="1.000000" stroke="none" 
	d="
M541.739136,710.275330 
	C540.404541,709.210205 540.782898,708.277405 541.880127,707.930603 
	C549.447327,705.538818 557.042725,703.235535 564.644836,700.956482 
	C565.013733,700.845825 565.530701,701.229309 566.745544,701.645203 
	C558.935852,707.003235 550.437195,708.525452 541.739136,710.275330 
z"/>
<path fill="#000000" opacity="1.000000" stroke="none" 
	d="
M503.001343,713.005249 
	C508.997589,713.221985 514.608643,711.077942 520.295532,712.837341 
	C514.908081,715.921082 509.203918,716.830566 503.186646,715.495056 
	C501.809326,715.189392 501.125732,714.320618 503.001343,713.005249 
z"/>
<path fill="#000000" opacity="1.000000" stroke="none" 
	d="
M635.941528,602.001587 
	C637.682434,600.968079 638.674438,598.992920 641.592468,600.033264 
	C639.807678,603.513306 637.670715,605.925171 633.715637,606.604126 
	C632.713318,603.943604 634.730774,603.373474 635.941528,602.001587 
z"/>
<path fill="#000000" opacity="1.000000" stroke="none" 
	d="
M663.756836,557.800354 
	C661.196777,558.239746 660.300598,557.109131 660.716248,555.049805 
	C660.995178,553.667786 662.282227,553.183472 663.442627,553.669983 
	C665.538086,554.548462 665.414978,556.050537 663.756836,557.800354 
z"/>
</svg>