<svg xmlns="http://www.w3.org/2000/svg" viewBox="0 0 1024 640" xml:space="preserve">
  <path d="M700.764 363.19c1.939 2.573 5.98 4.168 4.665 7.41-1.372 3.386-5.404 4.179-8.909 4.624-8.612 1.095-16.079-1.665-22.718-7.067-1.211-.986-2.06-2.53-4.307-2.915 2.844 3.845 5.728 6.816 9.922 8.508 4.997 2.016 9.59 7.63 7.928 9.551-3.175 3.671-7.746 3.348-12.065 2.556-6.12-1.123-10.22-5.387-14.102-9.782a182 182 0 0 1-8.868-10.822c-3.276-4.341-7.416-6.31-12.892-6.223-8.66.135-17.34.177-25.986-.251-18.98-.941-33.264-10.56-44.766-25.016-2.075-2.607-4.444-5.062-6.06-7.935-2.745-4.88-6.728-5.435-11.507-4.207-4.729 1.215-9.129 3.283-13.157 5.952-16.22 10.747-33.786 16.329-53.407 14.528-1.286-.118-2.767-.024-3.91.507-11.106 5.157-23.129 7.424-34.692 11.127-8.328 2.667-9.483 5.19-5.834 13.196 2.176 4.772 1.212 9.139-1.465 13.258-3.022 4.652-7.038 5.466-11.483 2.16a48.7 48.7 0 0 0-8.498-5.1c-5.074-2.378-7.65-6.873-8.385-12.27-.948-6.966-.862-13.95.53-20.886.749-3.726 3.232-6.142 6.127-8.196 4.32-3.067 8.728-6.01 14.01-9.631-7.153-4.095-14.098-5.522-21.417-4.607-8.111 1.015-16.217 2.293-22.116 9.038-1.144 1.31-2.96 2.389-4.655 2.797-7.304 1.763-13.586 5.14-18.968 10.425-2.216 2.176-5.352 1.814-8.103 1.096-3.716-.97-7.265-2.568-10.322-4.915-3.71-2.85-5.916-6.065-3.006-11.095 1.9-3.286 2.528-7.168 1.924-11.13-.74-4.854 1.803-8.735 4.342-12.427 2.11-3.069 1.994-5.46-.201-8.52-4.336-6.048-8.29-12.388-9.296-20.469 5.369-.186 8.246 4.631 12.68 5.298 1.17-.384 1.028-1.311 1.07-2.103.382-7.414.89-7.818 7.86-5.571 5.437 1.752 10.493 4.339 14.936 7.928 4.303 3.476 8.75 3.978 13.985 2.258 16.539-5.434 32.315-12.43 47.057-21.736 6.908-4.361 14.124-8.011 22.036-8.61 1.954 1.589-.386 2.802.637 4.106 6.23.002 12.686-1.583 18.63.908.238 2.695-2.001 1.955-2.7 3.198.41.24.773.532 1.187.685 19.188 7.068 39.093 7.415 59.16 6.335 16.469-.887 32.937-1.42 49.444-1.513 22.088-.125 42.4-6.739 60.003-20.249 11.77-9.034 18.14-21.084 16.985-36.413a43 43 0 0 1-.022-6.493c.3-3.942 1.874-7.163 6.004-8.296 4.006-1.099 7.34.425 9.666 3.605 5.917 8.09 6.583 17.35 4.81 26.757-4.888 25.945-22.303 41.203-45.063 51.54-6.327 2.874-13.04 4.896-20.282 7.569 6.797 10.03 10.283 21.306 17.107 30.804 5.268 7.33 12.315 10.556 21.29 8.603 6.31-1.374 10.56.346 13.951 6.266 4.55 7.94 10.8 14.761 16.588 21.87 3.89 4.78 10.22 5.57 14.628 9.984m-131.789-55.697c2.308 2.842 4.719 5.607 6.904 8.54 5.974 8.018 11.798 16.137 19.697 22.485 8.915 7.165 18.87 11.253 30.443 10.229 5.623-.498 11.223-1.434 16.779-2.467 8.766-1.63 16.321.37 23.293 6.052 5.796 4.723 10.97 10.265 17.6 13.94 3.816 2.116 7.738 3.48 12.212 1.884-.61-2.06-2.024-2.488-3.509-2.834-4.213-.983-7.56-3.354-10.451-6.482-6.562-7.097-13-14.309-18.09-22.562-1.929-3.126-4.098-4.331-7.83-3.476-5.82 1.333-11.826 1.04-17.049-1.832-4.393-2.415-8.126-2.916-13.003-1.28-6.96 2.335-13.987-1.564-15.421-7.72 4.736-.767 9.992.326 13.99-3.166-1.403-5.32-4.216-7.701-9.768-7.563-7.822.195-15.195-1.927-21.32-7.157-1.792-1.53-4.078-2.841-4.3-5.868 4.354-1.009 8.512-.324 12.618-.57 4.3-.256 8.14 2.175 12.547 2.386-4.865-14.065-17.159-22.967-32.399-23.751-24.196-1.245-48.32 2.843-72.974.504 1.707 1.877 4.427 1.206 5.144 3.972-4.139 1.078-8.186.7-12.219.108-10.539-1.548-20.067-6.038-29.533-10.541-11.892-5.657-23.43-5.795-34.757 1.255-6.808 4.238-13.946 7.809-21.379 10.788-8.453 3.387-16.94 6.692-25.416 10.035.504 3.718 4.594 5.169 4.766 8.768-2.14 2.61-6.037 2.943-7.903 6.243 4.219 3.497 8.83 4.857 14.04 4.191 5.776-.738 11.49-2.007 17.355-1.99 1.774.005 3.546-.347 3.61-2.543.126-4.387.037-8.78.037-13.563-4.775.794-8.68 1.516-12.61 2.077-3.868.552-7.826 1.642-12.642-.683 1.887-1.122 2.66-1.738 3.54-2.082 13.03-5.088 26.107-10.008 37.736-18.09 4.925-3.423 10.738-4.52 16.73-3.747 5.015.647 9.368 2.604 12.839 7.396-3.52 1.45-6.52 1.013-9.404.942-6.607-.162-12.934.71-18.853 3.885-7.208 3.867-10.46 11.554-8.058 19.426 1.337 4.38 3.633 8.188 6.833 11.482 4.877 5.02 9.924 9.34 17.786 7.953 2.268-.4 5.05-.33 6.814 2.382-.533.457-.946 1.038-1.5 1.251-10.485 4.032-19.866 10.111-29.465 15.794-10.324 6.112-12.741 24.484-4.294 33.202.996 1.028 1.874 2.412 3.777 2.222 2.444-2.694 1.72-5.089-.192-7.941-4.881-7.283-1.417-17.234 6.664-20.467 6.825-2.73 13.997-4.325 20.897-6.764 6.867-2.428 14.196-3.721 20.27-8.178 6.08-4.46 6.368-6.142 1.867-12.085-6.777-8.95-14.657-16.793-23.458-23.748-1.396-1.102-3.603-1.918-3.026-4.52 2.914-.763 5.265 1.51 7.924.915 1.245-1.133 1.185-2.75 1.569-4.146 1.911-6.954 2.057-7.223 8.782-5.347 11.395 3.178 22.93 5.704 34.503 8.11 2.768.576 5.902.92 8.032 4.236-15.43 6.819-29.801 1.48-44.42-3.026 1.768 7.191 10.982 15.721 18.342 17.675 7.335 1.947 14.51.964 21.711-.797 5.226-1.279 10.293-1.063 15.503 2.329-10.122 7.888-21.501 9.07-33.055 9.791l.592 8.796c10.928.972 20.743-1.745 30.042-6.57 11.873-6.163 23.14-14.006 38.281-11.992-4.906-7.162-11.985-5.582-18.394-6.508 5.75-7.19 16-6.801 24.623.812m-209.118-18.95c1.4 6.175 4.771 11.484 8.265 17.137-4.674.616-6.48-3.484-9.644-4.254-8.82 7.758-9.158 18.346-10.866 28.602 3.133.322 3.657-1.823 4.298-3.648 1.108-3.151 1.514-6.43 1.829-9.769.361-3.83.987-7.783 5.166-10.077 2.24 3.47-.724 6.399-.2 9.29 2.295 1.979 5.008-.545 7.604 1.13-3.385 8.349-11.805 12.949-16.24 20.56 5.966 3.104 8.896 2.58 12.432-1.814-2.04-.84-4.674 1.425-6.476-1.29 1.511-3.054 4.363-2.456 6.915-2.607 7.127-.422 13.916-2.253 19.39-6.858 5.926-4.987 4.811-11.82-2.187-14.395-4.414-1.624-6.33-4.385-6.559-8.895-.126-2.474-.56-4.982-1.227-7.371-1.83-6.556-5.672-11.344-12.312-13.76-1.47 2.692-.72 4.976-.188 8.019m249.256-16.189c-1.03.601-2.683.353-2.936 2.093 2.739 2.949 5.875 4.217 9.85 2.918 2.145-.702 4.257-1.26 3.52-4.278-.699-2.855-2.593-3.065-4.972-2.32-1.578.492-3.172.932-5.462 1.587m57.884-29.18c3.445.24 4.318-2.811 4.29-4.774-.045-3.273-3.076-4.524-5.85-5.467-4.158 5.607-4.152 5.66 1.56 10.24M654.2 259.468c.412-.28.83-.553 1.236-.841 1.996-1.42 3.171-3.1 1.28-5.376-1.108-1.333-2.178-3.472-4.356-2.191-1.758 1.034-4.28 2.304-3.564 4.79.579 2.011 1.016 5.389 5.404 3.618m-17.355 3.462c-1.805-.755-3.102.562-4.572 1.139-2.09.82-3.221 1.944-2.082 4.48 1.052 2.34 2.175 3.3 4.853 2.29 4.681-1.766 5.045-2.619 1.8-7.909m38.317-46.655c-1.92-.954-3.837-1.94-6.169-1.082-.822 2.188-1.198 4.348 1.273 5.59 1.66.835 3.601 2.559 5.443.902 1.47-1.322 1.274-3.3-.547-5.41m-296 79.204c.372 3.048-1.672 6.039-.448 9.29 4.726-3.608 5.422-7.769 1.944-10.8-1.042-.909-1.35-.057-1.496 1.51"/>
  <path d="M613.148 385.388c2.61-.239 2.697-.191 1.582 1.863a1857 1857 0 0 1-10.609 19.258c-6.473 11.6-12.982 23.18-18.885 35.27l26.507-23.246.981.818-6.204 15.196c5.287-1.904 17.847-14.608 26.364-25.927 7.528-10.007 13.034-21.147 18.45-32.598 4.468 2.005 6.402 5.93 9.322 8.742 1.366 1.315-.152 3.16-.842 4.603-13.38 28.028-32.862 50.759-59.005 67.646-28.572 18.457-60.03 27.077-93.88 25.926-75.285-2.56-134.222-54.72-150.587-118.548-.983-3.834-2.163-7.694-1.518-12.197 3.072-.343 6.14-.832 9.226-.99 3.126-.158 3.019 2.523 3.503 4.55 5.118 21.384 14.324 40.773 28.182 57.905 7.356 9.094 15.514 17.338 26.324 25.102-3.456-7.037-6.264-12.753-9.07-18.47 12.284 7 22.024 17.184 34.477 24.075l-28-46.061 1.026-.884c17.922 15.594 34.652 32.515 53.275 47.967l-13.974-39.304 1.377-.791c8.25 10.72 16.498 21.442 25.732 33.443l-7.991-53.375 1.343-.465 19.109 48.94 1.034.01 15.639-74.008 1.895.164c.384 26.413-1.36 52.855.445 79.546l46.671-86.975 1.685.793-31.182 84.884c12.163-11.099 22.148-24.32 35.361-34.398-5.495 14.718-12.419 28.589-19.093 42.655 6.772-4.976 13.714-9.673 17.124-17.404 2.57.418 2.36 2.491 3.732 3.675 12.816-16.347 26.683-31.622 40.474-47.39M420.417 204.43c-23.08 17.715-38.81 40.376-48.383 66.971-.885.052-1.074.119-1.214.063-13.738-5.463-12.073-3.57-7.1-14.776 20.071-45.237 53.804-75.98 101.263-89.843 59.735-17.449 113.242-4.519 159.505 37.236 8.417 7.597 15.512 16.5 21.936 25.87 2.664 3.886-1.275 11.945-5.995 12.397-2.126.203-2.697-1.685-3.578-3.006-14.746-22.116-33.722-39.721-57.829-50.881-55.69-25.781-108.617-20.31-158.605 15.969m249.717 86.669c1.614 10.084 2.817 19.758 1.868 29.726-3.736-.7-6.967-1.311-10.2-1.907-2.301-.423-2.864-2.103-2.817-4.071.277-11.604-1.95-22.849-4.819-34-.462-1.795-.32-3.222 1.352-4.356 2.724-1.847 5.378-3.796 8.59-6.079 3.64 6.656 4.312 13.613 6.026 20.687"/>
  <path d="M597.15 371.032c-3.972 7.766-7.878 15.24-11.796 22.737-6.419-4.272-6.605-5.731-1.746-10.972 3.506-3.78 6.905-7.661 10.482-11.372.694-.72 1.557-3.008 3.06-.393m-81.242-81.408c-3.238-1.984-2.042-2.993.44-3.326 9.061-1.216 18.13-2.389 27.216-3.402 3.964-.443 7.975-.45 11.964-.671 5.204-.289 8.888 1.606 13.142 5.195 7.602 6.415 13.85 13.57 19.23 21.783 1.82 2.778 5.11 4.185 7.927 5.97 4.291 2.718 7.322 6.453 9.364 11.672-6.464 1.488-11.71.36-16.525-3.127-5.51-3.99-9.312-9.47-13.005-15.022-12.667-19.043-12.668-19.136-35.805-17.326-7.988.624-15.936 1.698-23.948-1.746m83.433-1.949c.965 1.416 1.926 2.534-.188 3.344-7.3 2.799-21.4-1.397-25.923-7.784-.262-.369-.276-.913-.598-2.062 9.766-1.075 18.826-.77 26.71 6.502M455.7 305.715c-5.033 5.24-12.749 1.056-15.854-4.525-2.61-4.691-.62-10.302 4.406-12.726 1.361.621 1.067 1.93 1.066 2.995-.005 4.148 2.088 6.709 5.69 8.53 2.21 1.118 5.285 1.78 4.691 5.726m17.412 18.43c-3.744-3.765-7.627-6.273-12.865-6.11-1.077.033-2.231-.593-3.256-1.104-1.18-.59-2.367-1.332-2.326-2.917.043-1.645 1.329-2.133 2.59-2.601 3.258-1.208 6.567-1.375 9.574.464 4.739 2.899 8.272 6.904 10.282 11.989-1.31 1.98-2.509.754-3.999.28"/>
  <path d="M540.788 297.662c1.72.121 3.133-.108 3.958 1.267-3.497 8.25-14.232 11.333-21.314 5.336 4.958-4.4 10.434-6.638 17.356-6.603m60.188 40.734c4.388-3.13 14.087-2.83 17.663.204 2.527 2.143.792 3.422-.977 4.583-5.143 3.378-11.482 1.655-16.686-4.787m-141.358-.296c-1.84-.741-3.938-.87-3.901-3.005.031-1.84 1.906-2.064 3.238-2.608 3.22-1.315 6.442-2.63 9.708-3.82 1.689-.616 3.713-1.443 4.86.704 1.06 1.983-.49 3.397-1.761 4.714-3.223 3.339-7.173 4.614-12.144 4.015m178.394-3.203c2.184.045 4.398-.278 5.08 1.797.654 1.988-1.167 3.3-2.476 4.506-2.912 2.68-6.407 4.072-10.37 3.847-1.417-.08-3.057-.504-3.475-2.276-.348-1.474.575-2.552 1.59-3.412 2.687-2.28 5.74-3.857 9.651-4.462m30.631 10.458c.594 1.163 1.23 1.99.357 4.111-6.191-5.767-14.118-7.303-22.448-9.338 5.231-4.479 12.314-4.734 16.117-1.195 2.051 1.91 3.855 4.084 5.974 6.422m-226.334-.043c-2.172.247-3.967.39-5.593-.566 1.088-5.673 6.583-7.997 12.102-5.156-.724 3.321-3.234 4.7-6.51 5.722m-64.113-24.285c-2.343 3.745-4.948 6.15-9.478 4.595 3.788-10.035 5.713-11.665 11.104-9.49.383 1.778-.777 3.095-1.626 4.895"/>
</svg>
